<mxfile host="app.diagrams.net" agent="Mozilla/5.0 (X11; Ubuntu; Linux x86_64; rv:130.0) Gecko/20100101 Firefox/130.0" version="24.7.16">
  <diagram name="PÃ¡gina-1" id="6EnNQIZDhn4RRSMxUT6m">
    <mxGraphModel dx="2514" dy="894" grid="1" gridSize="10" guides="1" tooltips="1" connect="1" arrows="1" fold="1" page="1" pageScale="1" pageWidth="827" pageHeight="1169" math="0" shadow="0">
      <root>
        <mxCell id="0" />
        <mxCell id="1" parent="0" />
        <mxCell id="IxpANgXYzroypJM0cDld-34" value="" style="rounded=0;whiteSpace=wrap;html=1;" vertex="1" parent="1">
          <mxGeometry x="-620" y="24" width="660" height="560" as="geometry" />
        </mxCell>
        <mxCell id="IxpANgXYzroypJM0cDld-11" value="" style="edgeStyle=orthogonalEdgeStyle;rounded=0;orthogonalLoop=1;jettySize=auto;html=1;" edge="1" parent="1" source="IxpANgXYzroypJM0cDld-1" target="IxpANgXYzroypJM0cDld-2">
          <mxGeometry relative="1" as="geometry" />
        </mxCell>
        <mxCell id="IxpANgXYzroypJM0cDld-16" style="edgeStyle=orthogonalEdgeStyle;rounded=0;orthogonalLoop=1;jettySize=auto;html=1;entryX=0;entryY=0.5;entryDx=0;entryDy=0;" edge="1" parent="1" source="IxpANgXYzroypJM0cDld-1" target="IxpANgXYzroypJM0cDld-4">
          <mxGeometry relative="1" as="geometry" />
        </mxCell>
        <mxCell id="IxpANgXYzroypJM0cDld-32" style="edgeStyle=orthogonalEdgeStyle;rounded=0;orthogonalLoop=1;jettySize=auto;html=1;entryX=0.5;entryY=0;entryDx=0;entryDy=0;" edge="1" parent="1" source="IxpANgXYzroypJM0cDld-1" target="IxpANgXYzroypJM0cDld-26">
          <mxGeometry relative="1" as="geometry" />
        </mxCell>
        <mxCell id="IxpANgXYzroypJM0cDld-1" value="App.jsx" style="rounded=0;whiteSpace=wrap;html=1;" vertex="1" parent="1">
          <mxGeometry x="-605" y="50" width="120" height="60" as="geometry" />
        </mxCell>
        <mxCell id="IxpANgXYzroypJM0cDld-2" value="Header.jsx" style="rounded=0;whiteSpace=wrap;html=1;" vertex="1" parent="1">
          <mxGeometry x="-375" y="50" width="120" height="60" as="geometry" />
        </mxCell>
        <mxCell id="IxpANgXYzroypJM0cDld-17" style="edgeStyle=orthogonalEdgeStyle;rounded=0;orthogonalLoop=1;jettySize=auto;html=1;exitX=1;exitY=0.5;exitDx=0;exitDy=0;entryX=0;entryY=0.5;entryDx=0;entryDy=0;" edge="1" parent="1" source="IxpANgXYzroypJM0cDld-3" target="IxpANgXYzroypJM0cDld-5">
          <mxGeometry relative="1" as="geometry" />
        </mxCell>
        <mxCell id="IxpANgXYzroypJM0cDld-20" style="edgeStyle=orthogonalEdgeStyle;rounded=0;orthogonalLoop=1;jettySize=auto;html=1;entryX=0;entryY=0.75;entryDx=0;entryDy=0;" edge="1" parent="1" source="IxpANgXYzroypJM0cDld-3" target="IxpANgXYzroypJM0cDld-7">
          <mxGeometry relative="1" as="geometry" />
        </mxCell>
        <mxCell id="IxpANgXYzroypJM0cDld-21" style="edgeStyle=orthogonalEdgeStyle;rounded=0;orthogonalLoop=1;jettySize=auto;html=1;entryX=0;entryY=0.75;entryDx=0;entryDy=0;" edge="1" parent="1" source="IxpANgXYzroypJM0cDld-3" target="IxpANgXYzroypJM0cDld-8">
          <mxGeometry relative="1" as="geometry" />
        </mxCell>
        <mxCell id="IxpANgXYzroypJM0cDld-22" value="" style="edgeStyle=orthogonalEdgeStyle;rounded=0;orthogonalLoop=1;jettySize=auto;html=1;" edge="1" parent="1" source="IxpANgXYzroypJM0cDld-3" target="IxpANgXYzroypJM0cDld-6">
          <mxGeometry relative="1" as="geometry" />
        </mxCell>
        <mxCell id="IxpANgXYzroypJM0cDld-24" style="edgeStyle=orthogonalEdgeStyle;rounded=0;orthogonalLoop=1;jettySize=auto;html=1;entryX=0;entryY=0.5;entryDx=0;entryDy=0;" edge="1" parent="1" source="IxpANgXYzroypJM0cDld-3" target="IxpANgXYzroypJM0cDld-10">
          <mxGeometry relative="1" as="geometry" />
        </mxCell>
        <mxCell id="IxpANgXYzroypJM0cDld-3" value="Body.jsx" style="rounded=0;whiteSpace=wrap;html=1;" vertex="1" parent="1">
          <mxGeometry x="-375" y="140" width="120" height="60" as="geometry" />
        </mxCell>
        <mxCell id="IxpANgXYzroypJM0cDld-4" value="Footer.jsx" style="rounded=0;whiteSpace=wrap;html=1;" vertex="1" parent="1">
          <mxGeometry x="-375" y="230" width="120" height="60" as="geometry" />
        </mxCell>
        <mxCell id="IxpANgXYzroypJM0cDld-5" value="Cozinha..jsx" style="rounded=0;whiteSpace=wrap;html=1;" vertex="1" parent="1">
          <mxGeometry x="-145" y="50" width="120" height="60" as="geometry" />
        </mxCell>
        <mxCell id="IxpANgXYzroypJM0cDld-6" value="Fraldinha..jsx" style="rounded=0;whiteSpace=wrap;html=1;" vertex="1" parent="1">
          <mxGeometry x="-145" y="140" width="120" height="60" as="geometry" />
        </mxCell>
        <mxCell id="IxpANgXYzroypJM0cDld-7" value="Kits.jsx" style="rounded=0;whiteSpace=wrap;html=1;" vertex="1" parent="1">
          <mxGeometry x="-145" y="230" width="120" height="60" as="geometry" />
        </mxCell>
        <mxCell id="IxpANgXYzroypJM0cDld-8" value="Necessaire.jsx" style="rounded=0;whiteSpace=wrap;html=1;" vertex="1" parent="1">
          <mxGeometry x="-145" y="320" width="120" height="60" as="geometry" />
        </mxCell>
        <mxCell id="IxpANgXYzroypJM0cDld-9" value="Toalha.jsx" style="rounded=0;whiteSpace=wrap;html=1;" vertex="1" parent="1">
          <mxGeometry x="-145" y="410" width="120" height="60" as="geometry" />
        </mxCell>
        <mxCell id="IxpANgXYzroypJM0cDld-10" value="Uniforme.jsx" style="rounded=0;whiteSpace=wrap;html=1;" vertex="1" parent="1">
          <mxGeometry x="-145" y="500" width="120" height="60" as="geometry" />
        </mxCell>
        <mxCell id="IxpANgXYzroypJM0cDld-23" style="edgeStyle=orthogonalEdgeStyle;rounded=0;orthogonalLoop=1;jettySize=auto;html=1;entryX=0.007;entryY=0.644;entryDx=0;entryDy=0;entryPerimeter=0;" edge="1" parent="1" source="IxpANgXYzroypJM0cDld-3" target="IxpANgXYzroypJM0cDld-9">
          <mxGeometry relative="1" as="geometry" />
        </mxCell>
        <mxCell id="IxpANgXYzroypJM0cDld-25" style="edgeStyle=orthogonalEdgeStyle;rounded=0;orthogonalLoop=1;jettySize=auto;html=1;entryX=0;entryY=0.667;entryDx=0;entryDy=0;entryPerimeter=0;" edge="1" parent="1" source="IxpANgXYzroypJM0cDld-1" target="IxpANgXYzroypJM0cDld-3">
          <mxGeometry relative="1" as="geometry" />
        </mxCell>
        <mxCell id="IxpANgXYzroypJM0cDld-28" style="edgeStyle=orthogonalEdgeStyle;rounded=0;orthogonalLoop=1;jettySize=auto;html=1;entryX=0;entryY=0.5;entryDx=0;entryDy=0;" edge="1" parent="1" source="IxpANgXYzroypJM0cDld-26" target="IxpANgXYzroypJM0cDld-27">
          <mxGeometry relative="1" as="geometry" />
        </mxCell>
        <mxCell id="IxpANgXYzroypJM0cDld-26" value="GitHub" style="rounded=0;whiteSpace=wrap;html=1;" vertex="1" parent="1">
          <mxGeometry x="-605" y="730" width="120" height="60" as="geometry" />
        </mxCell>
        <mxCell id="IxpANgXYzroypJM0cDld-30" style="edgeStyle=orthogonalEdgeStyle;rounded=0;orthogonalLoop=1;jettySize=auto;html=1;" edge="1" parent="1" source="IxpANgXYzroypJM0cDld-27">
          <mxGeometry relative="1" as="geometry">
            <mxPoint x="-35" y="760" as="targetPoint" />
          </mxGeometry>
        </mxCell>
        <mxCell id="IxpANgXYzroypJM0cDld-27" value="Vercel" style="rounded=0;whiteSpace=wrap;html=1;" vertex="1" parent="1">
          <mxGeometry x="-311" y="730" width="120" height="60" as="geometry" />
        </mxCell>
        <mxCell id="IxpANgXYzroypJM0cDld-31" value="" style="sketch=0;aspect=fixed;pointerEvents=1;shadow=0;dashed=0;html=1;strokeColor=none;labelPosition=center;verticalLabelPosition=bottom;verticalAlign=top;align=center;fillColor=#00188D;shape=mxgraph.azure.computer" vertex="1" parent="1">
          <mxGeometry x="-25" y="737.5" width="50" height="45" as="geometry" />
        </mxCell>
      </root>
    </mxGraphModel>
  </diagram>
</mxfile>
